# xmcd
#
# Track frame offsets:
#	150
#	17267
#	34346
#	49436
#	66690
#	84401
#	97933
#	115164
#	130115
#	144067
#	160662
#	174290
#
# Disc length: 2535 seconds
#
# Revision: 1
# Processed by: cddbd v1.5.2PL0 Copyright (c) Steve Scherf et al.
# Submitted via: audiograbber 1.83.01
#
DISCID=9209e50c
DTITLE=Codie Prevost - Get Loud
DYEAR=2012
DGENRE=Country
TTITLE0=Rolling Back To You
TTITLE1=Honky Tonk Groupie
TTITLE2=Get Loud
TTITLE3=I'm Okay
TTITLE4=Standing Still
TTITLE5=Cruising Song
TTITLE6=From Where I Stand
TTITLE7=You've Got What Gets Me
TTITLE8=Finish What He Started
TTITLE9=How To Forget
TTITLE10=Famous
TTITLE11=Cotton Eye Joe
EXTD=
EXTT0=
EXTT1=
EXTT2=
EXTT3=
EXTT4=
EXTT5=
EXTT6=
EXTT7=
EXTT8=
EXTT9=
EXTT10=
EXTT11=
PLAYORDER=
